<svg width="300" height="150" viewBox="0 0 300 150" fill="none" xmlns="http://www.w3.org/2000/svg">
<rect width="300" height="150" fill="#FFEBB3"/>
<path d="M52.2397 98.6861L52.6291 98.1058L71.0445 60.9193L71.0834 60.5256L62.9657 44.2979C62.2853 42.9386 60.3704 43.2822 60.1474 44.8039L52.2397 98.6861Z" fill="#FFC24A"/>
<path d="M52.4697 98.2434L52.7641 97.6324L70.9847 60.8355L62.8892 44.5419C62.2161 43.1966 60.5072 43.5396 60.2848 45.0455L52.4697 98.2434Z" fill="#FFA712"/>
<path d="M52.4697 98.2434L52.7641 97.6324L70.9847 60.8355L62.8892 44.5419C62.2161 43.1966 60.5072 43.5396 60.2848 45.0455L52.4697 98.2434Z" fill="#FFC24A"/>
<path d="M77.0014 72.8002L83.0458 66.2124L76.9998 53.929C76.4257 52.7663 74.8232 52.763 74.2554 53.929L71.0249 60.4875V61.0457L77.0014 72.8002Z" fill="#F4BD62"/>
<path d="M76.8936 72.5257L82.7698 66.1211L76.8936 54.213C76.3357 53.0809 74.9801 52.9642 74.428 54.0959L71.1807 60.752L71.0835 61.0924L76.8936 72.5257Z" fill="#FFA50E"/>
<path d="M76.8936 72.5257L82.7698 66.1211L76.8936 54.213C76.3357 53.0809 74.9801 52.9642 74.428 54.0959L71.1807 60.752L71.0835 61.0924L76.8936 72.5257Z" fill="#F4BD62"/>
<path d="M71.0419 60.4494L52.2397 98.6861L52.4162 98.4971L53.0574 98.2199L76.6219 73.2354L76.9201 72.3707L71.0419 60.4494Z" fill="#F6820C"/>
<path d="M77.7561 111.286L99.0825 98.6283L92.9941 58.7112C92.8033 57.4624 91.3639 56.9685 90.524 57.8641L52.2397 98.6861L73.4437 111.285C74.1028 111.677 74.8451 111.882 75.5999 111.883C76.3547 111.883 77.0971 111.677 77.7563 111.286" fill="#FDE068"/>
<path d="M98.8914 98.5225L92.8475 58.9099C92.6586 57.6705 91.4609 57.1577 90.6275 58.0464L52.478 98.6084L73.4491 111.081C74.7788 111.871 76.3984 111.872 77.7288 111.082L98.8914 98.5225Z" fill="#FCCA3F"/>
<path d="M77.7561 110.913C76.4172 111.709 74.7836 111.708 73.4435 110.912L52.4103 98.4942L52.2397 98.6861L73.4437 111.285C74.7837 112.082 76.4158 112.082 77.7563 111.286L99.0826 98.6285L99.0304 98.2865L77.7561 110.913Z" fill="#EEAB37"/>
<path d="M115.23 92.8242H111.601V62.7631H128.071V66.4569H115.23V76.3243H126.83V79.9381H115.23V92.8242ZM134.451 67.0866C133.951 67.6189 133.347 67.8872 132.637 67.8872C132.3 67.8934 131.964 67.8256 131.652 67.6878C131.34 67.5501 131.058 67.3454 130.824 67.0866C130.581 66.8363 130.39 66.536 130.26 66.2041C130.131 65.8722 130.067 65.5156 130.071 65.1564C130.066 64.7969 130.129 64.44 130.259 64.1079C130.388 63.7758 130.581 63.4757 130.824 63.2262C131.059 62.9684 131.341 62.7644 131.653 62.6267C131.965 62.489 132.3 62.4206 132.637 62.4255C132.975 62.4193 133.311 62.4872 133.623 62.6249C133.935 62.7627 134.217 62.9673 134.451 63.2262C134.693 63.4765 134.885 63.7768 135.014 64.1087C135.144 64.4406 135.208 64.7971 135.204 65.1564C135.209 65.5158 135.146 65.8727 135.016 66.2048C134.887 66.5369 134.694 66.837 134.451 67.0866ZM134.451 92.8242H130.822V72.2518H134.451V92.8242ZM142.286 92.8242H138.654V72.2518H142.125V75.6102H142.282C142.648 74.4915 143.406 73.5675 144.551 72.8404C145.696 72.1134 146.787 71.7476 147.885 71.7476C148.983 71.7476 149.872 71.9164 150.61 72.2518L149.227 75.8656C148.754 75.6492 148.109 75.5713 147.296 75.5713C145.98 75.5713 144.815 76.1231 143.805 77.2288C142.794 78.3346 142.286 79.7823 142.286 81.574V92.8242ZM160.155 93.4733C157.235 93.4733 154.862 92.439 153.034 90.366C151.206 88.2929 150.289 85.6789 150.289 82.5153C150.289 79.5204 151.175 76.9454 152.932 74.7901C154.689 72.6349 156.999 71.5572 159.738 71.5572C162.584 71.5572 164.898 72.5526 166.623 74.5391C168.347 76.5256 169.205 79.185 169.205 82.5174L169.164 83.2315H153.914C154.02 85.3024 154.671 86.9405 155.866 88.1436C156.421 88.7236 157.078 89.1815 157.799 89.4912C158.52 89.8009 159.292 89.9562 160.069 89.9483C162.672 89.9483 164.435 88.7733 165.356 86.4212L168.609 87.8493C167.999 89.4441 166.938 90.7814 165.492 91.8591C164.046 92.9367 162.269 93.4755 160.165 93.4755L160.155 93.4733ZM165.36 80.0571C165.279 78.8821 164.774 77.7633 163.841 76.6987C162.908 75.634 161.519 75.1039 159.679 75.1039C158.337 75.1039 157.174 75.5518 156.188 76.4455C155.201 77.3392 154.524 78.5445 154.154 80.0592H165.338L165.36 80.0571ZM182.365 93.4733C180.89 93.4733 179.569 93.1379 178.4 92.465C177.23 91.792 176.354 90.9546 175.756 89.9462H175.62V92.8025H172.149V62.7631H175.779V72.2518L175.62 75.1082H175.779C176.358 74.0998 177.233 73.2602 178.422 72.5894C179.612 71.9186 180.915 71.581 182.387 71.581C184.888 71.581 187.064 72.6305 188.857 74.7295C190.65 76.8285 191.582 79.4317 191.582 82.5196C191.582 85.6075 190.675 88.2323 188.857 90.3097C187.039 92.3871 184.886 93.4582 182.387 93.4582L182.365 93.4733ZM181.755 89.9462C183.438 89.9462 184.886 89.2667 186.094 87.9121C187.302 86.5575 187.908 84.7571 187.908 82.5174C187.908 80.2778 187.302 78.4796 186.094 77.1228C184.886 75.766 183.436 75.0887 181.755 75.0887C180.935 75.0716 180.121 75.2425 179.369 75.5898C178.617 75.937 177.944 76.4525 177.395 77.1012C176.2 78.4644 175.6 80.2497 175.6 82.5174C175.6 84.7852 176.198 86.5899 177.395 87.9337C178.593 89.2775 180.045 89.9505 181.755 89.9505V89.9462ZM201.098 93.4733C199.064 93.4733 197.33 92.8242 195.949 91.5843C194.569 90.3443 193.875 88.6586 193.875 86.6072C193.875 84.3676 194.689 82.6127 196.321 81.3381C197.954 80.0636 199.965 79.4274 202.36 79.4274C204.491 79.4274 206.24 79.8472 207.606 80.6868V80.0982C207.606 78.5835 207.118 77.376 206.147 76.4671C205.175 75.5583 203.977 75.1039 202.556 75.1039C201.502 75.1039 200.549 75.37 199.695 75.9045C198.882 76.3841 198.259 77.1592 197.94 78.0879L194.626 76.5775C195.073 75.3441 195.953 74.2059 197.269 73.1585C198.585 72.1112 200.319 71.5832 202.474 71.5832C204.947 71.5832 206.998 72.3535 208.629 73.8921C210.26 75.4306 211.075 77.601 211.075 80.399V92.8263H207.625V89.97H207.466C206.018 92.32 203.902 93.4972 201.114 93.4972L201.098 93.4733ZM201.708 89.9462C203.206 89.9462 204.569 89.3511 205.791 88.1609C207.013 86.9708 207.625 85.5642 207.625 83.9413C206.6 83.0454 205.063 82.5997 203.009 82.5997C201.246 82.5997 199.918 83.0065 199.024 83.818C198.129 84.6294 197.682 85.5816 197.682 86.6743C197.682 87.6827 198.088 88.479 198.906 89.0676C199.723 89.6562 200.654 89.9505 201.708 89.9505V89.9462ZM221.634 93.4733C219.479 93.4733 217.696 92.9107 216.287 91.7942C214.914 90.7217 213.843 89.27 213.19 87.5962L216.443 86.168C217.468 88.7647 219.219 90.0306 221.689 90.0306C222.82 90.0306 223.747 89.7644 224.471 89.2299C225.195 88.6954 225.557 87.9965 225.557 87.1309C225.557 85.7893 224.676 84.8804 222.913 84.4044L219.009 83.396C217.773 83.0606 216.602 82.4222 215.498 81.4853C214.394 80.5483 213.847 79.3278 213.847 77.7092C213.847 75.8915 214.603 74.4136 216.116 73.2797C217.629 72.1458 219.424 71.5789 221.504 71.5789C223.212 71.5789 224.758 72.0116 226.079 72.8166C227.401 73.6216 228.381 74.8247 228.961 76.3654L225.805 77.7503C225.093 75.9327 223.621 75.0238 221.386 75.0238C220.309 75.0238 219.4 75.2402 218.662 75.7379C217.924 76.2356 217.558 76.8566 217.558 77.6681C217.558 78.8431 218.412 79.6416 220.12 80.0614L223.946 81.0265C225.76 81.4744 227.102 82.2448 227.972 83.3354C228.843 84.426 229.274 85.6594 229.274 87.0292C229.274 88.8772 228.562 90.4157 227.143 91.647C225.723 92.8783 223.893 93.495 221.659 93.495L221.634 93.4733ZM240.965 93.4733C238.045 93.4733 235.671 92.439 233.845 90.366C232.019 88.2929 231.1 85.6789 231.1 82.5153C231.1 79.5204 231.986 76.9454 233.743 74.7901C235.5 72.6349 237.81 71.5572 240.548 71.5572C243.395 71.5572 245.709 72.5526 247.433 74.5391C249.158 76.5256 250.016 79.185 250.016 82.5174V83.2315H234.766C234.867 85.3024 235.522 86.9405 236.718 88.1436C237.272 88.7234 237.929 89.1811 238.649 89.4908C239.37 89.8004 240.141 89.9559 240.919 89.9483C243.521 89.9483 245.284 88.7733 246.205 86.4212L249.459 87.8493C248.849 89.4441 247.787 90.7814 246.341 91.8591C244.896 92.9367 243.119 93.4755 241.014 93.4755L240.965 93.4733ZM246.171 80.0571C246.089 78.8821 245.585 77.7633 244.652 76.6987C243.718 75.634 242.33 75.1039 240.49 75.1039C239.21 75.0799 237.967 75.5583 236.998 76.4477C236.012 77.3435 235.335 78.5467 234.965 80.0614H246.148L246.171 80.0571Z" fill="#63666A"/>
</svg>
