<svg width="175" height="44" viewBox="0 0 175 44" fill="none" xmlns="http://www.w3.org/2000/svg">
<rect y="2" width="40" height="40" rx="8" fill="#006AE6"/>
<path fill-rule="evenodd" clip-rule="evenodd" d="M13.9601 26.8397L7.63965 33.1602L8.82759 34.3481L15.148 28.0277L20.021 32.9006L24.8726 28.049L31.1971 34.3736L32.3851 33.1856L26.0605 26.8611L30.9777 21.944L26.1047 17.071L32.373 10.8027L31.1851 9.61475L24.9168 15.8831L20.0463 11.0126L15.1291 15.9297L8.83965 9.64019L7.65171 10.8281L13.9412 17.1176L9.08961 21.9692L13.9601 26.8397ZM15.148 25.6518L18.8117 21.9881L15.1291 18.3056L11.4655 21.9692L15.148 25.6518ZM16.3171 17.1176L20.0463 13.3884L23.7288 17.071L19.9996 20.8002L16.3171 17.1176ZM24.9168 18.2589L21.1876 21.9881L24.8726 25.6732L28.6018 21.944L24.9168 18.2589ZM23.6847 26.8611L19.9996 23.1761L16.336 26.8397L20.021 30.5248L23.6847 26.8611Z" fill="white"/>
<path d="M54.5966 28.8381L54.5838 23.2514H55.3253L62.3821 15.3636H67.7898L59.1094 25.0284H58.1506L54.5966 28.8381ZM50.3778 35V8.81818H55.0057V35H50.3778ZM62.7017 35L56.3097 26.0639L59.429 22.804L68.2372 35H62.7017ZM76.5245 35.3963C75.2802 35.3963 74.1594 35.1747 73.1623 34.7315C72.1737 34.2798 71.3896 33.6151 70.81 32.7372C70.239 31.8594 69.9535 30.777 69.9535 29.4901C69.9535 28.3821 70.158 27.4659 70.5671 26.7415C70.9762 26.017 71.5344 25.4375 72.2418 25.0028C72.9492 24.5682 73.7461 24.2401 74.6325 24.0185C75.5273 23.7884 76.4521 23.6222 77.4066 23.5199C78.5572 23.4006 79.4904 23.294 80.2063 23.2003C80.9222 23.098 81.4421 22.9446 81.766 22.7401C82.0984 22.527 82.2646 22.1989 82.2646 21.7557V21.679C82.2646 20.7159 81.979 19.9702 81.408 19.4418C80.837 18.9134 80.0146 18.6491 78.9407 18.6491C77.8072 18.6491 76.908 18.8963 76.2433 19.3906C75.587 19.8849 75.1438 20.4687 74.9137 21.142L70.5927 20.5284C70.9336 19.3352 71.4961 18.3381 72.2802 17.5369C73.0643 16.7273 74.0231 16.1222 75.1566 15.7216C76.2901 15.3125 77.543 15.108 78.9151 15.108C79.8612 15.108 80.8029 15.2188 81.7404 15.4403C82.6779 15.6619 83.5344 16.0284 84.31 16.5398C85.0856 17.0426 85.7077 17.7287 86.1765 18.598C86.6538 19.4673 86.8924 20.554 86.8924 21.858V35H82.4435V32.3026H82.2901C82.0089 32.848 81.6126 33.3594 81.1012 33.8366C80.5984 34.3054 79.9634 34.6847 79.1964 34.9744C78.4379 35.2557 77.5472 35.3963 76.5245 35.3963ZM77.7262 31.9957C78.6552 31.9957 79.4606 31.8125 80.1424 31.446C80.8242 31.071 81.3484 30.5767 81.7148 29.9631C82.0898 29.3494 82.2773 28.6804 82.2773 27.956V25.642C82.1325 25.7614 81.8853 25.8722 81.5359 25.9744C81.195 26.0767 80.8114 26.1662 80.3853 26.2429C79.9592 26.3196 79.5373 26.3878 79.1197 26.4474C78.7021 26.5071 78.3398 26.5582 78.033 26.6009C77.3427 26.6946 76.7248 26.848 76.1793 27.0611C75.6339 27.2741 75.2035 27.5724 74.8881 27.956C74.5728 28.331 74.4151 28.8168 74.4151 29.4134C74.4151 30.2656 74.7262 30.9091 75.3484 31.3438C75.9705 31.7784 76.7631 31.9957 77.7262 31.9957ZM96.1737 23.4943V35H91.5458V15.3636H95.9691V18.7003H96.1992C96.6509 17.6009 97.3711 16.7273 98.3597 16.0795C99.3569 15.4318 100.588 15.108 102.054 15.108C103.409 15.108 104.59 15.3977 105.596 15.9773C106.61 16.5568 107.394 17.3963 107.948 18.4957C108.51 19.5952 108.787 20.929 108.779 22.4972V35H104.151V23.2131C104.151 21.9006 103.81 20.8736 103.128 20.1321C102.455 19.3906 101.522 19.0199 100.328 19.0199C99.5188 19.0199 98.7987 19.1989 98.168 19.5568C97.5458 19.9062 97.0558 20.4134 96.6978 21.0781C96.3484 21.7429 96.1737 22.5483 96.1737 23.4943ZM113.688 35V8.81818H118.316V18.6108H118.507C118.746 18.1335 119.083 17.6264 119.517 17.0895C119.952 16.544 120.54 16.0795 121.282 15.696C122.023 15.304 122.969 15.108 124.12 15.108C125.637 15.108 127.005 15.4957 128.223 16.2713C129.451 17.0384 130.422 18.1761 131.138 19.6847C131.863 21.1847 132.225 23.0256 132.225 25.2074C132.225 27.3636 131.871 29.196 131.164 30.7045C130.456 32.2131 129.493 33.3636 128.275 34.1562C127.056 34.9489 125.675 35.3452 124.132 35.3452C123.007 35.3452 122.074 35.1577 121.333 34.7827C120.591 34.4077 119.995 33.956 119.543 33.4276C119.1 32.8906 118.755 32.3835 118.507 31.9062H118.239V35H113.688ZM118.226 25.1818C118.226 26.4517 118.405 27.5639 118.763 28.5185C119.13 29.473 119.654 30.2187 120.336 30.7557C121.026 31.2841 121.861 31.5483 122.841 31.5483C123.864 31.5483 124.721 31.2756 125.411 30.7301C126.101 30.1761 126.621 29.4219 126.971 28.4673C127.328 27.5043 127.507 26.4091 127.507 25.1818C127.507 23.9631 127.333 22.8807 126.983 21.9347C126.634 20.9886 126.114 20.2472 125.424 19.7102C124.733 19.1733 123.873 18.9048 122.841 18.9048C121.853 18.9048 121.013 19.1648 120.323 19.6847C119.632 20.2045 119.108 20.9332 118.75 21.8707C118.401 22.8082 118.226 23.9119 118.226 25.1818ZM141.81 35.3963C140.565 35.3963 139.445 35.1747 138.447 34.7315C137.459 34.2798 136.675 33.6151 136.095 32.7372C135.524 31.8594 135.239 30.777 135.239 29.4901C135.239 28.3821 135.443 27.4659 135.852 26.7415C136.261 26.017 136.82 25.4375 137.527 25.0028C138.234 24.5682 139.031 24.2401 139.918 24.0185C140.813 23.7884 141.737 23.6222 142.692 23.5199C143.842 23.4006 144.776 23.294 145.491 23.2003C146.207 23.098 146.727 22.9446 147.051 22.7401C147.384 22.527 147.55 22.1989 147.55 21.7557V21.679C147.55 20.7159 147.264 19.9702 146.693 19.4418C146.122 18.9134 145.3 18.6491 144.226 18.6491C143.092 18.6491 142.193 18.8963 141.528 19.3906C140.872 19.8849 140.429 20.4687 140.199 21.142L135.878 20.5284C136.219 19.3352 136.781 18.3381 137.565 17.5369C138.349 16.7273 139.308 16.1222 140.442 15.7216C141.575 15.3125 142.828 15.108 144.2 15.108C145.146 15.108 146.088 15.2188 147.026 15.4403C147.963 15.6619 148.82 16.0284 149.595 16.5398C150.371 17.0426 150.993 17.7287 151.462 18.598C151.939 19.4673 152.178 20.554 152.178 21.858V35H147.729V32.3026H147.575C147.294 32.848 146.898 33.3594 146.386 33.8366C145.884 34.3054 145.249 34.6847 144.482 34.9744C143.723 35.2557 142.832 35.3963 141.81 35.3963ZM143.011 31.9957C143.94 31.9957 144.746 31.8125 145.428 31.446C146.109 31.071 146.634 30.5767 147 29.9631C147.375 29.3494 147.562 28.6804 147.562 27.956V25.642C147.418 25.7614 147.17 25.8722 146.821 25.9744C146.48 26.0767 146.097 26.1662 145.67 26.2429C145.244 26.3196 144.822 26.3878 144.405 26.4474C143.987 26.5071 143.625 26.5582 143.318 26.6009C142.628 26.6946 142.01 26.848 141.464 27.0611C140.919 27.2741 140.489 27.5724 140.173 27.956C139.858 28.331 139.7 28.8168 139.7 29.4134C139.7 30.2656 140.011 30.9091 140.634 31.3438C141.256 31.7784 142.048 31.9957 143.011 31.9957ZM161.459 23.4943V35H156.831V15.3636H161.254V18.7003H161.484C161.936 17.6009 162.656 16.7273 163.645 16.0795C164.642 15.4318 165.874 15.108 167.339 15.108C168.695 15.108 169.875 15.3977 170.881 15.9773C171.895 16.5568 172.679 17.3963 173.233 18.4957C173.795 19.5952 174.072 20.929 174.064 22.4972V35H169.436V23.2131C169.436 21.9006 169.095 20.8736 168.413 20.1321C167.74 19.3906 166.807 19.0199 165.614 19.0199C164.804 19.0199 164.084 19.1989 163.453 19.5568C162.831 19.9062 162.341 20.4134 161.983 21.0781C161.634 21.7429 161.459 22.5483 161.459 23.4943Z" fill="#E2E5E9"/>
</svg>
