<svg width="40" height="40" viewBox="0 0 40 40" fill="none" xmlns="http://www.w3.org/2000/svg">
<rect width="40" height="40" rx="8" fill="#006AE6"/>
<path fill-rule="evenodd" clip-rule="evenodd" d="M13.9601 24.8395L7.63965 31.16L8.82759 32.3479L15.148 26.0274L20.021 30.9004L24.8726 26.0488L31.1971 32.3733L32.3851 31.1854L26.0605 24.8608L30.9777 19.9437L26.1047 15.0708L32.373 8.80244L31.1851 7.6145L24.9168 13.8828L20.0463 9.01231L15.1291 13.9294L8.83965 7.63994L7.65171 8.82788L13.9412 15.1174L9.08961 19.969L13.9601 24.8395ZM15.148 23.6516L18.8117 19.9879L15.1291 16.3053L11.4655 19.969L15.148 23.6516ZM16.3171 15.1174L20.0463 11.3882L23.7288 15.0708L19.9996 18.7999L16.3171 15.1174ZM24.9168 16.2587L21.1876 19.9879L24.8726 23.6729L28.6018 19.9437L24.9168 16.2587ZM23.6847 24.8608L19.9996 21.1758L16.336 24.8395L20.021 28.5245L23.6847 24.8608Z" fill="white"/>
</svg>
