<svg width="174" height="44" viewBox="0 0 174 44" fill="none" xmlns="http://www.w3.org/2000/svg">
<rect y="2" width="40" height="40" rx="8" fill="#006AE6"/>
<path fill-rule="evenodd" clip-rule="evenodd" d="M13.9601 26.8397L7.63965 33.1602L8.82759 34.3481L15.148 28.0277L20.021 32.9006L24.8726 28.049L31.1971 34.3736L32.3851 33.1856L26.0605 26.8611L30.9777 21.944L26.1047 17.071L32.373 10.8027L31.1851 9.61475L24.9168 15.8831L20.0463 11.0126L15.1291 15.9297L8.83965 9.64019L7.65171 10.8281L13.9412 17.1176L9.08961 21.9692L13.9601 26.8397ZM15.148 25.6518L18.8117 21.9881L15.1291 18.3056L11.4655 21.9692L15.148 25.6518ZM16.3171 17.1176L20.0463 13.3884L23.7288 17.071L19.9996 20.8002L16.3171 17.1176ZM24.9168 18.2589L21.1876 21.9881L24.8726 25.6732L28.6018 21.944L24.9168 18.2589ZM23.6847 26.8611L19.9996 23.1761L16.336 26.8397L20.021 30.5248L23.6847 26.8611Z" fill="white"/>
<path d="M50.5824 35V8.81818H55.3253V20.848H55.6449L65.8594 8.81818H71.6506L61.5256 20.5668L71.7401 35H66.0384L58.2273 23.7756L55.3253 27.2017V35H50.5824ZM78.3079 35H73.2454L82.4627 8.81818H88.3178L97.5479 35H92.4854L85.4925 14.1875H85.288L78.3079 35ZM78.4741 24.7344H92.2809V28.544H78.4741V24.7344ZM122.512 8.81818V35H118.293L105.957 17.1662H105.739V35H100.996V8.81818H105.241L117.565 26.6648H117.795V8.81818H122.512ZM127.68 35V8.81818H137.498C139.51 8.81818 141.197 9.16761 142.561 9.86648C143.933 10.5653 144.968 11.5455 145.667 12.8068C146.375 14.0597 146.728 15.5213 146.728 17.1918C146.728 18.8707 146.37 20.3281 145.654 21.5639C144.947 22.7912 143.903 23.7415 142.522 24.4148C141.142 25.0795 139.446 25.4119 137.434 25.4119H130.441V21.4744H136.795C137.971 21.4744 138.934 21.3125 139.684 20.9886C140.434 20.6562 140.988 20.1747 141.346 19.544C141.713 18.9048 141.896 18.1207 141.896 17.1918C141.896 16.2628 141.713 15.4702 141.346 14.8139C140.98 14.1491 140.422 13.6463 139.672 13.3054C138.922 12.956 137.954 12.7812 136.77 12.7812H132.423V35H127.68ZM141.206 23.1364L147.687 35H142.395L136.028 23.1364H141.206ZM155.837 8.81818V35H151.094V8.81818H155.837Z" fill="#E2E5E9"/>
</svg>
