<svg width="206" height="44" viewBox="0 0 206 44" fill="none" xmlns="http://www.w3.org/2000/svg">
<rect y="2" width="40" height="40" rx="8" fill="#006AE6"/>
<path fill-rule="evenodd" clip-rule="evenodd" d="M13.9601 26.8397L7.63965 33.1602L8.82759 34.3481L15.148 28.0277L20.021 32.9006L24.8726 28.049L31.1971 34.3736L32.3851 33.1856L26.0605 26.8611L30.9777 21.944L26.1047 17.071L32.373 10.8027L31.1851 9.61475L24.9168 15.8831L20.0463 11.0126L15.1291 15.9297L8.83965 9.64019L7.65171 10.8281L13.9412 17.1176L9.08961 21.9692L13.9601 26.8397ZM15.148 25.6518L18.8117 21.9881L15.1291 18.3056L11.4655 21.9692L15.148 25.6518ZM16.3171 17.1176L20.0463 13.3884L23.7288 17.071L19.9996 20.8002L16.3171 17.1176ZM24.9168 18.2589L21.1876 21.9881L24.8726 25.6732L28.6018 21.944L24.9168 18.2589ZM23.6847 26.8611L19.9996 23.1761L16.336 26.8397L20.021 30.5248L23.6847 26.8611Z" fill="white"/>
<path d="M49.4318 12.794V8.81818H70.321V12.794H62.2287V35H57.5241V12.794H49.4318ZM77.1222 35.3963C75.8778 35.3963 74.7571 35.1747 73.7599 34.7315C72.7713 34.2798 71.9872 33.6151 71.4077 32.7372C70.8366 31.8594 70.5511 30.777 70.5511 29.4901C70.5511 28.3821 70.7557 27.4659 71.1648 26.7415C71.5739 26.017 72.1321 25.4375 72.8395 25.0028C73.5469 24.5682 74.3438 24.2401 75.2301 24.0185C76.125 23.7884 77.0497 23.6222 78.0043 23.5199C79.1548 23.4006 80.0881 23.294 80.804 23.2003C81.5199 23.098 82.0398 22.9446 82.3636 22.7401C82.696 22.527 82.8622 22.1989 82.8622 21.7557V21.679C82.8622 20.7159 82.5767 19.9702 82.0057 19.4418C81.4347 18.9134 80.6122 18.6491 79.5384 18.6491C78.4048 18.6491 77.5057 18.8963 76.8409 19.3906C76.1847 19.8849 75.7415 20.4687 75.5114 21.142L71.1903 20.5284C71.5313 19.3352 72.0938 18.3381 72.8778 17.5369C73.6619 16.7273 74.6207 16.1222 75.7543 15.7216C76.8878 15.3125 78.1406 15.108 79.5128 15.108C80.4588 15.108 81.4006 15.2188 82.3381 15.4403C83.2756 15.6619 84.1321 16.0284 84.9077 16.5398C85.6832 17.0426 86.3054 17.7287 86.7741 18.598C87.2514 19.4673 87.4901 20.554 87.4901 21.858V35H83.0412V32.3026H82.8878C82.6065 32.848 82.2102 33.3594 81.6989 33.8366C81.196 34.3054 80.5611 34.6847 79.794 34.9744C79.0355 35.2557 78.1449 35.3963 77.1222 35.3963ZM78.3239 31.9957C79.2528 31.9957 80.0582 31.8125 80.7401 31.446C81.4219 31.071 81.946 30.5767 82.3125 29.9631C82.6875 29.3494 82.875 28.6804 82.875 27.956V25.642C82.7301 25.7614 82.483 25.8722 82.1335 25.9744C81.7926 26.0767 81.4091 26.1662 80.983 26.2429C80.5568 26.3196 80.1349 26.3878 79.7173 26.4474C79.2997 26.5071 78.9375 26.5582 78.6307 26.6009C77.9403 26.6946 77.3224 26.848 76.777 27.0611C76.2315 27.2741 75.8011 27.5724 75.4858 27.956C75.1705 28.331 75.0128 28.8168 75.0128 29.4134C75.0128 30.2656 75.3239 30.9091 75.946 31.3438C76.5682 31.7784 77.3608 31.9957 78.3239 31.9957ZM107.663 20.554L103.445 21.0142C103.325 20.5881 103.116 20.1875 102.818 19.8125C102.528 19.4375 102.136 19.1349 101.642 18.9048C101.148 18.6747 100.543 18.5597 99.8267 18.5597C98.8636 18.5597 98.054 18.7685 97.3977 19.1861C96.75 19.6037 96.4304 20.1449 96.4389 20.8097C96.4304 21.3807 96.6392 21.8452 97.0653 22.2031C97.5 22.5611 98.2159 22.8551 99.2131 23.0852L102.562 23.8011C104.42 24.2017 105.801 24.8366 106.705 25.706C107.616 26.5753 108.077 27.7131 108.085 29.1193C108.077 30.3551 107.714 31.446 106.999 32.392C106.291 33.3295 105.307 34.0625 104.045 34.5909C102.784 35.1193 101.335 35.3835 99.6989 35.3835C97.2955 35.3835 95.3608 34.8807 93.8949 33.875C92.429 32.8608 91.5554 31.4503 91.2741 29.6435L95.7869 29.2088C95.9915 30.0952 96.4261 30.7642 97.0909 31.2159C97.7557 31.6676 98.6207 31.8935 99.6861 31.8935C100.786 31.8935 101.668 31.6676 102.332 31.2159C103.006 30.7642 103.342 30.206 103.342 29.5412C103.342 28.9787 103.125 28.5142 102.69 28.1477C102.264 27.7812 101.599 27.5 100.696 27.304L97.3466 26.6009C95.4631 26.2088 94.0696 25.5483 93.1662 24.6193C92.2628 23.6818 91.8153 22.4972 91.8239 21.0653C91.8153 19.8551 92.1435 18.8068 92.8082 17.9205C93.4815 17.0256 94.4148 16.3352 95.608 15.8494C96.8097 15.3551 98.1946 15.108 99.7628 15.108C102.064 15.108 103.875 15.598 105.196 16.5781C106.526 17.5582 107.348 18.8835 107.663 20.554ZM116.12 28.8381L116.107 23.2514H116.849L123.906 15.3636H129.313L120.633 25.0284H119.674L116.12 28.8381ZM111.901 35V8.81818H116.529V35H111.901ZM124.225 35L117.833 26.0639L120.952 22.804L129.761 35H124.225ZM140.154 35.3835C138.237 35.3835 136.575 34.9616 135.168 34.1179C133.762 33.2741 132.671 32.0937 131.896 30.5767C131.129 29.0597 130.745 27.2869 130.745 25.2585C130.745 23.2301 131.129 21.4531 131.896 19.9276C132.671 18.402 133.762 17.2173 135.168 16.3736C136.575 15.5298 138.237 15.108 140.154 15.108C142.072 15.108 143.734 15.5298 145.14 16.3736C146.546 17.2173 147.633 18.402 148.4 19.9276C149.175 21.4531 149.563 23.2301 149.563 25.2585C149.563 27.2869 149.175 29.0597 148.4 30.5767C147.633 32.0937 146.546 33.2741 145.14 34.1179C143.734 34.9616 142.072 35.3835 140.154 35.3835ZM140.18 31.6761C141.219 31.6761 142.089 31.3906 142.788 30.8196C143.487 30.2401 144.006 29.4645 144.347 28.4929C144.697 27.5213 144.871 26.4389 144.871 25.2457C144.871 24.044 144.697 22.9574 144.347 21.9858C144.006 21.0057 143.487 20.2259 142.788 19.6463C142.089 19.0668 141.219 18.777 140.18 18.777C139.114 18.777 138.228 19.0668 137.521 19.6463C136.822 20.2259 136.298 21.0057 135.948 21.9858C135.607 22.9574 135.437 24.044 135.437 25.2457C135.437 26.4389 135.607 27.5213 135.948 28.4929C136.298 29.4645 136.822 30.2401 137.521 30.8196C138.228 31.3906 139.114 31.6761 140.18 31.6761ZM153.491 35V15.3636H157.914V18.7003H158.145C158.554 17.5753 159.231 16.6974 160.177 16.0668C161.123 15.4276 162.252 15.108 163.565 15.108C164.895 15.108 166.015 15.4318 166.927 16.0795C167.848 16.7187 168.495 17.5923 168.87 18.7003H169.075C169.51 17.6094 170.243 16.7401 171.274 16.0923C172.314 15.4361 173.545 15.108 174.968 15.108C176.775 15.108 178.25 15.679 179.392 16.821C180.534 17.9631 181.105 19.6293 181.105 21.8196V35H176.464V22.5355C176.464 21.3168 176.14 20.4261 175.493 19.8636C174.845 19.2926 174.052 19.0071 173.115 19.0071C171.998 19.0071 171.125 19.3565 170.494 20.0554C169.872 20.7457 169.561 21.6449 169.561 22.7528V35H165.022V22.3438C165.022 21.3295 164.716 20.5199 164.102 19.9148C163.497 19.3097 162.704 19.0071 161.724 19.0071C161.059 19.0071 160.454 19.1776 159.909 19.5185C159.363 19.8509 158.929 20.3239 158.605 20.9375C158.281 21.5426 158.119 22.25 158.119 23.0597V35H153.491ZM194.365 35.3835C192.447 35.3835 190.786 34.9616 189.379 34.1179C187.973 33.2741 186.882 32.0937 186.107 30.5767C185.339 29.0597 184.956 27.2869 184.956 25.2585C184.956 23.2301 185.339 21.4531 186.107 19.9276C186.882 18.402 187.973 17.2173 189.379 16.3736C190.786 15.5298 192.447 15.108 194.365 15.108C196.283 15.108 197.945 15.5298 199.351 16.3736C200.757 17.2173 201.844 18.402 202.611 19.9276C203.386 21.4531 203.774 23.2301 203.774 25.2585C203.774 27.2869 203.386 29.0597 202.611 30.5767C201.844 32.0937 200.757 33.2741 199.351 34.1179C197.945 34.9616 196.283 35.3835 194.365 35.3835ZM194.391 31.6761C195.43 31.6761 196.3 31.3906 196.999 30.8196C197.697 30.2401 198.217 29.4645 198.558 28.4929C198.908 27.5213 199.082 26.4389 199.082 25.2457C199.082 24.044 198.908 22.9574 198.558 21.9858C198.217 21.0057 197.697 20.2259 196.999 19.6463C196.3 19.0668 195.43 18.777 194.391 18.777C193.325 18.777 192.439 19.0668 191.732 19.6463C191.033 20.2259 190.509 21.0057 190.159 21.9858C189.818 22.9574 189.648 24.044 189.648 25.2457C189.648 26.4389 189.818 27.5213 190.159 28.4929C190.509 29.4645 191.033 30.2401 191.732 30.8196C192.439 31.3906 193.325 31.6761 194.391 31.6761Z" fill="#E2E5E9"/>
</svg>
