<svg width="300" height="150" viewBox="0 0 300 150" fill="none" xmlns="http://www.w3.org/2000/svg">
<rect width="300" height="150" fill="#B4F2FD"/>
<path d="M88.8727 81.1988C92.3278 81.1988 95.1288 78.3979 95.1288 74.9428C95.1288 71.4877 92.3278 68.6867 88.8727 68.6867C85.4176 68.6867 82.6167 71.4877 82.6167 74.9428C82.6167 78.3979 85.4176 81.1988 88.8727 81.1988Z" fill="#00C0DF"/>
<path fill-rule="evenodd" clip-rule="evenodd" d="M88.873 62.2229C97.2726 62.2229 105.076 63.4282 110.959 65.4536C118.048 67.8941 122.406 71.5932 122.406 74.9427C122.406 78.4332 117.787 82.363 110.175 84.8851C104.42 86.7919 96.8463 87.7873 88.873 87.7873C80.6982 87.7873 72.957 86.853 67.1371 84.8642C59.7738 82.3474 55.3389 78.3667 55.3389 74.9427C55.3389 71.6204 59.5002 67.9498 66.4893 65.5131C72.3946 63.4543 80.3903 62.2229 88.8719 62.2229H88.873Z" stroke="#00C0DF" stroke-width="1.66272"/>
<path fill-rule="evenodd" clip-rule="evenodd" d="M77.7999 68.6195C81.9962 61.3433 86.9382 55.1859 91.6321 51.1011C97.2874 46.1795 102.669 44.2521 105.571 45.9253C108.595 47.669 109.691 53.6337 108.073 61.4878C106.851 67.426 103.929 74.4835 99.9455 81.3906C95.8614 88.4723 91.185 94.7115 86.5551 98.7583C80.6965 103.88 75.0325 105.733 72.0664 104.022C69.1882 102.364 68.0876 96.9243 69.4683 89.6525C70.6349 83.5083 73.5626 75.9668 77.7986 68.6194L77.7999 68.6195Z" stroke="#00C0DF" stroke-width="1.66272"/>
<path fill-rule="evenodd" clip-rule="evenodd" d="M77.8105 81.4092C73.6023 74.1412 70.7372 66.783 69.5413 60.6765C68.1018 53.319 69.1196 47.6936 72.0185 46.0155C75.0393 44.2667 80.7546 46.2954 86.751 51.6197C91.2847 55.6452 95.9402 61.7004 99.9351 68.6011C104.031 75.6759 107.101 82.8435 108.295 88.8757C109.806 96.5092 108.583 102.342 105.619 104.057C102.744 105.722 97.4825 103.959 91.8721 99.1313C87.1317 95.0523 82.0601 88.7494 77.8105 81.409V81.4092Z" stroke="#00C0DF" stroke-width="1.66272"/>
<path fill-rule="evenodd" clip-rule="evenodd" d="M158.316 90.9264L150.648 79.3416C154.524 78.9996 158.016 76.1916 158.016 71.0616C158.016 65.8416 154.311 62.5008 149.115 62.5008H137.703V90.9048H141.238V79.6188H146.902L154.142 90.9048L158.316 90.9264ZM148.692 76.5318H141.24V65.6724H148.692C152.058 65.6724 154.356 67.8864 154.356 71.0814C154.356 74.2764 152.056 76.5354 148.692 76.5354V76.5318ZM171.476 91.4358C174.842 91.4358 177.609 90.3288 179.653 88.2858L178.12 86.1978C176.5 87.8592 174.117 88.7952 171.775 88.7952C167.347 88.7952 164.62 85.5588 164.364 81.6852H181.014V80.8752C181.014 74.7012 177.351 69.8448 171.132 69.8448C165.255 69.8448 160.998 74.658 160.998 80.6196C160.998 87.051 165.385 91.4196 171.474 91.4196L171.476 91.4358ZM177.866 79.3398H164.366C164.537 76.1898 166.706 72.4818 171.094 72.4818C175.78 72.4818 177.823 76.2726 177.866 79.3398ZM202.227 90.9246V76.7856C202.227 71.8032 198.609 69.843 194.264 69.843C190.898 69.843 188.259 70.95 186.045 73.2504L187.536 75.4644C189.366 73.506 191.37 72.6114 193.839 72.6114C196.82 72.6114 199.036 74.1864 199.036 76.9548V80.6592C197.374 78.7422 195.033 77.8476 192.221 77.8476C188.729 77.8476 185.021 80.0202 185.021 84.6192C185.021 89.0904 188.725 91.434 192.221 91.434C194.989 91.434 197.333 90.4548 199.036 88.581V90.921L202.227 90.9246ZM193.371 89.1354C190.39 89.1354 188.302 87.2634 188.302 84.6642C188.302 82.0236 190.39 80.1498 193.371 80.1498C195.628 80.1498 197.799 81.0012 199.036 82.7058V86.5812C197.801 88.284 195.628 89.1354 193.371 89.1354ZM217.671 91.4358C221.419 91.4358 223.633 89.9022 225.21 87.8592L223.08 85.9008C221.718 87.7314 219.972 88.5828 217.86 88.5828C213.474 88.5828 210.75 85.1754 210.75 80.6196C210.75 76.0638 213.475 72.6996 217.86 72.6996C219.99 72.6996 221.736 73.5096 223.08 75.3816L225.21 73.4232C223.635 71.3784 221.419 69.8466 217.671 69.8466C211.539 69.8466 207.408 74.532 207.408 80.6214C207.408 86.754 211.539 91.4214 217.671 91.4214V91.4358ZM234.879 91.4358C236.751 91.4358 237.903 90.8814 238.713 90.1164L237.777 87.7314C237.351 88.1994 236.517 88.5828 235.605 88.5828C234.201 88.5828 233.517 87.4758 233.517 85.9422V73.1658H237.693V70.356H233.517V64.7346H230.322V70.356H226.914V73.1676H230.322V86.6262C230.322 89.6934 231.855 91.4394 234.879 91.4394V91.4358Z" fill="#00C0DF"/>
</svg>
