<svg width="300" height="150" viewBox="0 0 300 150" fill="none" xmlns="http://www.w3.org/2000/svg">
<rect width="300" height="150" fill="#D1B7FA"/>
<path d="M107.772 85.6444C109.891 85.4527 111.43 83.5284 111.43 81.4093C111.43 79.2933 109.506 77.5607 107.388 77.5607H107.195C104.885 77.5607 103.152 79.485 103.345 81.7942C103.345 82.9503 103.923 83.9117 104.5 84.4898C101.997 89.3029 98.3403 92.9599 92.5642 95.8487C88.7155 97.9647 84.6721 98.5428 80.6287 98.1579C77.3566 97.7746 74.8527 96.2336 73.12 93.9229C70.8108 90.2659 70.6176 86.4157 72.5435 82.5655C73.8913 79.8699 76.2005 77.7508 77.5483 76.7894C77.1634 75.8265 76.7785 74.287 76.5853 73.1324C65.9977 80.8328 67.1523 91.0356 70.4259 96.0404C72.7351 99.6989 77.7399 102.008 83.1311 102.008C84.6721 102.008 86.0184 101.816 87.5594 101.432C96.6061 99.3141 103.728 93.9229 107.772 85.6444Z" fill="#764ABC"/>
<path d="M120.479 76.5962C114.898 70.0519 106.811 66.5866 97.5709 66.5866H96.4147C95.8382 65.2373 94.2987 64.4691 92.7577 64.4691H92.5645C90.2553 64.4691 88.5227 66.3934 88.7159 68.7041C88.7159 70.8201 90.6402 72.5528 92.7577 72.5528H92.9494C94.4904 72.5528 95.8382 71.3997 96.608 70.0519H97.9558C103.537 70.0519 108.735 71.5914 113.357 74.8651C117.014 77.1743 119.516 80.4464 121.057 84.1049C122.212 87.1854 122.212 90.0727 120.864 92.7683C118.748 96.6169 115.474 98.736 110.854 98.736C107.965 98.736 105.271 97.7731 103.73 97.195C102.961 97.9663 101.421 99.1209 100.458 99.8906C103.539 101.432 106.811 102.201 109.891 102.201C116.822 102.201 122.02 98.3511 123.944 94.5009C126.062 90.0727 126.062 82.7571 120.479 76.5962Z" fill="#764ABC"/>
<path d="M83.5161 86.8006C83.5161 88.9166 85.4419 90.6492 87.5595 90.6492H87.7511C90.0619 90.6492 91.7945 88.7249 91.6013 86.4157C91.6013 84.2982 89.677 82.5655 87.5595 82.5655H86.9799C84.0926 77.5591 82.7448 72.1695 83.1312 66.3934C83.5145 61.9667 84.8639 58.3081 87.3647 55.036C89.4823 52.3404 93.5257 50.9926 96.2213 50.9926C103.922 50.8009 107.194 60.4257 107.387 64.2759C108.348 64.4691 109.889 65.0456 111.044 65.4305C110.081 53.6882 102.959 47.5273 95.8364 47.5273C89.2891 47.5273 83.3229 52.3404 80.8189 59.2711C77.5468 68.511 79.6643 77.5591 83.7077 84.4898C83.7077 85.2595 83.5145 86.0293 83.5145 86.8006" fill="#764ABC"/>
<path d="M139.681 77.3552V86.6058H133.9V61.8271H141.993C143.81 61.8271 145.297 61.9912 146.619 62.3224C147.941 62.6521 148.931 63.1489 149.758 63.8097C150.583 64.4691 151.078 65.2971 151.575 66.122C151.905 66.948 152.07 67.939 152.07 69.0951C152.07 69.9216 151.904 70.5825 151.739 71.4074C151.574 72.0688 151.244 72.7296 150.748 73.39C150.253 74.0509 149.758 74.5461 149.261 75.0414C148.602 75.5382 147.941 75.8694 147.114 76.1991C147.444 76.3631 147.941 76.6943 148.27 76.8584C148.6 77.1896 148.93 77.5193 149.097 77.8505L154.382 86.4402H149.097C148.105 86.4402 147.444 86.1105 146.95 85.2841L142.819 78.0161C142.69 77.7208 142.454 77.485 142.158 77.3552C141.993 77.1896 141.498 77.1896 141.166 77.1896H139.679L139.681 77.3552ZM139.681 73.39H141.993C142.819 73.39 143.48 73.2244 143.975 73.0603C144.471 72.8947 144.966 72.5635 145.297 72.2339C145.628 71.9042 145.957 71.4074 146.122 71.0777C146.288 70.5825 146.288 70.0857 146.288 69.5904C146.288 68.4343 145.958 67.6083 145.297 67.1125C144.636 66.4532 143.48 66.122 141.993 66.122H139.681V73.39ZM164.128 68.5999C165.286 68.5999 166.442 68.7655 167.267 69.0951C168.095 69.4248 169.084 69.9216 169.745 70.7465C170.406 71.4074 171.066 72.2339 171.398 73.2244C171.727 74.2165 172.057 75.3711 172.057 76.6943V77.6849C172.057 78.0161 171.893 78.1801 171.893 78.3457C171.727 78.5113 171.727 78.6769 171.562 78.6769C171.398 78.6769 171.232 78.841 170.902 78.841H160.66C160.825 80.3283 161.321 81.3189 161.981 81.9797C162.641 82.6406 163.633 82.9718 164.789 82.9718C165.45 82.9718 165.947 82.9718 166.442 82.8062C166.937 82.6406 167.267 82.475 167.598 82.3109L168.589 81.8157C168.92 81.6501 169.249 81.6501 169.581 81.6501C170.076 81.6501 170.24 81.8157 170.571 82.1453L172.058 83.9623C171.574 84.5898 170.952 85.0985 170.241 85.4497L168.259 86.4402L166.276 86.9355C165.617 87.1011 164.955 87.1011 164.294 87.1011C162.972 87.1011 161.816 86.9355 160.825 86.4417C159.669 86.1105 158.843 85.4497 158.016 84.6232C157.19 83.7972 156.529 82.8057 156.034 81.6485C155.538 80.4939 155.374 79.1722 155.374 77.5193C155.374 76.3631 155.538 75.207 156.034 74.2165C156.365 73.2244 157.026 72.2339 157.852 71.4074C158.677 70.5825 159.504 69.9201 160.66 69.5904C161.65 68.7655 162.806 68.5999 164.128 68.5999ZM164.294 72.2339C163.303 72.2339 162.477 72.5635 161.981 73.0603C161.486 73.5556 160.991 74.3821 160.825 75.5382H167.434C167.434 75.0414 167.434 74.7117 167.267 74.3821C167.103 74.0509 166.937 73.5541 166.772 73.39C166.606 73.0603 166.276 72.8947 165.781 72.5635C165.286 72.3995 164.789 72.2339 164.294 72.2339ZM187.585 86.6058C187.255 86.6058 186.926 86.6058 186.76 86.4402C186.557 86.2521 186.389 86.0287 186.265 85.7809L185.934 84.4576C185.585 84.8291 185.198 85.1617 184.777 85.4497C184.448 85.7793 183.953 85.9449 183.456 86.2746L181.968 86.7714C181.475 86.9355 180.814 86.9355 180.317 86.9355C179.326 86.9355 178.5 86.7714 177.839 86.2761C177.014 85.9449 176.352 85.2841 175.858 84.4576C175.361 83.6327 174.866 82.8062 174.536 81.6501C174.04 80.4939 173.875 79.1722 173.875 77.8505C173.875 76.5287 174.04 75.3726 174.371 74.2165C174.701 73.0603 175.197 72.0688 175.858 71.2418C176.518 70.4169 177.344 69.7565 178.336 69.2607C179.326 68.7655 180.317 68.5999 181.475 68.5999C182.465 68.5999 183.126 68.7655 183.787 68.9295C184.446 69.2607 184.943 69.5904 185.438 69.9216V61.0007H190.725V86.6073L187.585 86.6058ZM182.134 82.8062C182.465 82.8062 182.795 82.8062 183.126 82.6406C183.456 82.6406 183.785 82.475 183.953 82.3109C184.117 82.1453 184.448 81.9797 184.612 81.8157L185.273 81.1548V73.7212C184.953 73.2546 184.49 72.906 183.953 72.7291C183.456 72.5635 182.96 72.3995 182.465 72.3995C182.005 72.4089 181.554 72.5215 181.143 72.7291C180.814 72.8947 180.317 73.2244 180.153 73.7212C179.822 74.2165 179.656 74.7117 179.492 75.3726C179.278 76.1814 179.167 77.0139 179.161 77.8505C179.161 78.841 179.161 79.5019 179.326 80.1627C179.492 80.8241 179.657 81.3199 179.822 81.6501C180.009 82.0014 180.297 82.2887 180.648 82.475C181.475 82.6406 181.803 82.8062 182.134 82.8062ZM199.81 68.9295V80.1627C199.81 80.9892 199.976 81.6501 200.47 82.1453C200.801 82.6406 201.462 82.8047 202.288 82.8047C202.949 82.8047 203.444 82.6406 203.94 82.475C204.435 82.3104 204.931 81.9802 205.427 81.4845V68.9295H210.712V86.6073H207.409C206.749 86.6073 206.253 86.2761 206.088 85.7809L205.757 84.7903C205.427 85.12 205.097 85.4497 204.766 85.6153C204.436 85.9465 203.94 86.1121 203.61 86.2761C203.115 86.4417 202.783 86.6073 202.288 86.7729C201.793 86.937 201.298 86.937 200.637 86.937C199.732 86.9469 198.833 86.7786 197.993 86.4417C197.167 86.1121 196.672 85.6153 196.176 84.9544C195.681 84.2935 195.35 83.6342 195.02 82.8077C194.689 81.9813 194.689 81.1563 194.689 80.1643V68.9311L199.81 68.9295ZM218.972 77.3552L213.356 68.7655H218.477C218.807 68.7655 219.136 68.7655 219.304 68.9295L219.799 69.4248L222.938 74.7117C222.938 74.5461 223.103 74.3821 223.267 74.0509C223.433 73.8853 223.433 73.7212 223.598 73.3915L225.911 69.4248C226.076 69.0946 226.241 68.9295 226.406 68.9295C226.572 68.7655 226.737 68.7655 227.067 68.7655H231.857L226.24 77.024L232.188 86.4402H226.737C226.431 86.4347 226.137 86.3175 225.911 86.1105C225.745 85.9449 225.415 85.7793 225.415 85.4497L222.277 79.9971C222.277 80.1627 222.111 80.3283 222.111 80.4939C222.111 80.658 221.945 80.8236 221.781 80.9892L219.138 85.4497C218.972 85.6137 218.807 85.9449 218.643 86.109C218.417 86.3165 218.123 86.4343 217.816 86.4402H213.19L218.972 77.3552Z" fill="#303030"/>
</svg>
